<svg width="380" height="100" viewBox="0 0 380 100" fill="none" xmlns="http://www.w3.org/2000/svg">
<g clip-path="url(#clip0_10_150)">
<path d="M88.6767 4.62951L62.2047 0.418793L33.8954 5.46159L13.3452 17.3634L0.402061 38.8089L2.6086 58.5515L22.938 75.7834L51.9071 78.9558L62.0859 77.1165L64.9696 87.6274L80.3271 97.4422L98.8541 99.6091L114.393 90.7816L122.136 65.6013L131.446 49.5767L121.646 27.927L109.865 16.2147L88.6767 4.62951ZM62.2379 3.70506L87.6127 7.74177L107.907 18.8392L118.937 29.8051L127.804 49.3924L119.146 64.2952L111.672 88.6L98.1765 96.2671L81.4444 94.3101L67.7654 85.5684L64.4279 73.3995L51.7893 75.6835L24.2769 72.6709L5.68585 56.9127L3.74456 39.5418L15.6886 19.7519L35.0243 8.55317L62.2379 3.70506Z" fill="white"/>
<path d="M98.5149 95.8763C99.6604 95.8763 100.589 96.7994 100.589 97.9381C100.589 99.0769 99.6604 100 98.5149 100C97.3695 100 96.4409 99.0769 96.4409 97.9381C96.4409 96.7994 97.3695 95.8763 98.5149 95.8763ZM80.8859 93.8144C82.0314 93.8144 82.9599 94.7376 82.9599 95.8763C82.9599 97.015 82.0314 97.9381 80.8859 97.9381C79.7405 97.9381 78.812 97.015 78.812 95.8763C78.812 94.7376 79.7405 93.8144 80.8859 93.8144ZM113.033 87.6289C114.178 87.6289 115.107 88.552 115.107 89.6907C115.107 90.8295 114.178 91.7526 113.033 91.7526C111.887 91.7526 110.959 90.8295 110.959 89.6907C110.959 88.552 111.887 87.6289 113.033 87.6289ZM96.411 84.8232C97.5565 84.8232 98.485 85.7463 98.485 86.885C98.485 88.0238 97.5565 88.9469 96.411 88.9469C95.2656 88.9469 94.337 88.0238 94.337 86.885C94.337 85.7463 95.2656 84.8232 96.411 84.8232ZM66.368 84.5361C67.5134 84.5361 68.442 85.4592 68.442 86.5979C68.442 87.7367 67.5134 88.6598 66.368 88.6598C65.2225 88.6598 64.294 87.7367 64.294 86.5979C64.294 85.4592 65.2225 84.5361 66.368 84.5361ZM82.4813 75.9624C83.6268 75.9624 84.5553 76.8855 84.5553 78.0243C84.5553 79.163 83.6268 80.0861 82.4813 80.0861C81.3359 80.0861 80.4073 79.163 80.4073 78.0243C80.4073 76.8855 81.3359 75.9624 82.4813 75.9624ZM51.85 75.2577C52.9954 75.2577 53.924 76.1809 53.924 77.3196C53.924 78.4583 52.9954 79.3814 51.85 79.3814C50.7045 79.3814 49.776 78.4583 49.776 77.3196C49.776 76.1809 50.7045 75.2577 51.85 75.2577ZM63.4863 73.4308C64.6317 73.4308 65.5603 74.3539 65.5603 75.4926C65.5603 76.6314 64.6317 77.5545 63.4863 77.5545C62.3409 77.5545 61.4123 76.6314 61.4123 75.4926C61.4123 74.3539 62.3409 73.4308 63.4863 73.4308ZM23.6078 72.1649C24.7533 72.1649 25.6818 73.0881 25.6818 74.2268C25.6818 75.3655 24.7533 76.2887 23.6078 76.2887C22.4624 76.2887 21.5338 75.3655 21.5338 74.2268C21.5338 73.0881 22.4624 72.1649 23.6078 72.1649ZM120.641 62.8866C121.786 62.8866 122.715 63.8097 122.715 64.9485C122.715 66.0872 121.786 67.0103 120.641 67.0103C119.495 67.0103 118.567 66.0872 118.567 64.9485C118.567 63.8097 119.495 62.8866 120.641 62.8866ZM34.221 62.8866C35.3664 62.8866 36.295 63.8097 36.295 64.9485C36.295 66.0872 35.3664 67.0103 34.221 67.0103C33.0755 67.0103 32.147 66.0872 32.147 64.9485C32.147 63.8097 33.0755 62.8866 34.221 62.8866ZM104.009 60.7725C105.154 60.7725 106.083 61.6957 106.083 62.8344C106.083 63.9731 105.154 64.8963 104.009 64.8963C102.864 64.8963 101.935 63.9731 101.935 62.8344C101.935 61.6957 102.864 60.7725 104.009 60.7725ZM69.818 55.7093C70.9634 55.7093 71.892 56.6324 71.892 57.7711C71.892 58.9098 70.9634 59.833 69.818 59.833C68.6725 59.833 67.744 58.9098 67.744 57.7711C67.744 56.6324 68.6725 55.7093 69.818 55.7093ZM4.148 55.6701C5.29344 55.6701 6.222 56.5932 6.222 57.732C6.222 58.8707 5.29344 59.7938 4.148 59.7938C3.00256 59.7938 2.074 58.8707 2.074 57.732C2.074 56.5932 3.00256 55.6701 4.148 55.6701ZM51.85 54.0305C52.9954 54.0305 53.924 54.9536 53.924 56.0924C53.924 57.2311 52.9954 58.1542 51.85 58.1542C50.7045 58.1542 49.776 57.2311 49.776 56.0924C49.776 54.9536 50.7045 54.0305 51.85 54.0305ZM20.74 53.2488C21.8854 53.2488 22.814 54.1719 22.814 55.3107C22.814 56.4494 21.8854 57.3725 20.74 57.3725C19.5945 57.3725 18.666 56.4494 18.666 55.3107C18.666 54.1719 19.5945 53.2488 20.74 53.2488ZM129.625 47.4227C130.77 47.4227 131.699 48.3458 131.699 49.4845C131.699 50.6233 130.77 51.5464 129.625 51.5464C128.479 51.5464 127.551 50.6233 127.551 49.4845C127.551 48.3458 128.479 47.4227 129.625 47.4227ZM17.9138 39.6162C19.0592 39.6162 19.9878 40.5393 19.9878 41.6781C19.9878 42.8168 19.0592 43.7399 17.9138 43.7399C16.7684 43.7399 15.8398 42.8168 15.8398 41.6781C15.8398 40.5393 16.7684 39.6162 17.9138 39.6162ZM88.833 38.8064C89.9784 38.8064 90.907 39.7295 90.907 40.8682C90.907 42.007 89.9784 42.9301 88.833 42.9301C87.6875 42.9301 86.759 42.007 86.759 40.8682C86.759 39.7295 87.6875 38.8064 88.833 38.8064ZM2.074 37.1134C3.21944 37.1134 4.148 38.0365 4.148 39.1753C4.148 40.314 3.21944 41.2371 2.074 41.2371C0.928561 41.2371 0 40.314 0 39.1753C0 38.0365 0.928561 37.1134 2.074 37.1134ZM33.184 33.8362C34.3294 33.8362 35.258 34.7593 35.258 35.898C35.258 37.0368 34.3294 37.9599 33.184 37.9599C32.0385 37.9599 31.11 37.0368 31.11 35.898C31.11 34.7593 32.0385 33.8362 33.184 33.8362ZM59.8352 31.2341C60.9807 31.2341 61.9092 32.1573 61.9092 33.296C61.9092 34.4347 60.9807 35.3579 59.8352 35.3579C58.6898 35.3579 57.7612 34.4347 57.7612 33.296C57.7612 32.1573 58.6898 31.2341 59.8352 31.2341ZM120.292 26.8041C121.437 26.8041 122.366 27.7272 122.366 28.866C122.366 30.0047 121.437 30.9278 120.292 30.9278C119.146 30.9278 118.218 30.0047 118.218 28.866C118.218 27.7272 119.146 26.8041 120.292 26.8041ZM81.923 21.6495C83.0684 21.6495 83.9969 22.5726 83.9969 23.7113C83.9969 24.8501 83.0684 25.7732 81.923 25.7732C80.7775 25.7732 79.8489 24.8501 79.8489 23.7113C79.8489 22.5726 80.7775 21.6495 81.923 21.6495ZM14.518 16.4948C15.6634 16.4948 16.592 17.418 16.592 18.5567C16.592 19.6954 15.6634 20.6186 14.518 20.6186C13.3726 20.6186 12.444 19.6954 12.444 18.5567C12.444 17.418 13.3726 16.4948 14.518 16.4948ZM108.885 15.4639C110.03 15.4639 110.959 16.387 110.959 17.5258C110.959 18.6645 110.03 19.5876 108.885 19.5876C107.739 19.5876 106.811 18.6645 106.811 17.5258C106.811 16.387 107.739 15.4639 108.885 15.4639ZM34.4609 4.94477C35.6064 4.94477 36.5349 5.8679 36.5349 7.00663C36.5349 8.14536 35.6064 9.06849 34.4609 9.06849C33.3155 9.06849 32.3869 8.14536 32.3869 7.00663C32.3869 5.8679 33.3155 4.94477 34.4609 4.94477ZM88.1449 4.12371C89.2904 4.12371 90.2189 5.04684 90.2189 6.18557C90.2189 7.3243 89.2904 8.24742 88.1449 8.24742C86.9995 8.24742 86.0709 7.3243 86.0709 6.18557C86.0709 5.04684 86.9995 4.12371 88.1449 4.12371ZM62.22 0C63.3654 0 64.294 0.923124 64.294 2.06186C64.294 3.20059 63.3654 4.12371 62.22 4.12371C61.0745 4.12371 60.146 3.20059 60.146 2.06186C60.146 0.923124 61.0745 0 62.22 0Z" fill="white"/>
<path d="M34.7213 6.76475L34.7704 6.83372L40.1904 16.5273C39.9507 16.5804 39.7147 16.6435 39.4831 16.7163L34.7508 8.25443L34.0527 21.9126C33.7303 22.8049 33.5546 23.7668 33.5546 24.7698L33.5598 25.0664L33.5755 25.3671C33.6101 25.8597 33.6872 26.3405 33.803 26.8062L33.3801 35.0972L36.5579 31.2132C36.7387 31.3656 36.926 31.5106 37.1194 31.6477L33.7281 35.7912L41.4565 38.5962C41.3382 38.8021 41.2313 39.0147 41.1364 39.2329L33.5591 36.4842L33.7722 42.3969C33.509 42.3725 33.2431 42.36 32.9754 42.36L33.0611 42.3612L32.8471 36.4042L18.3211 41.9022L21.0041 54.8422L24.9216 53.4704C24.9963 53.694 25.0802 53.9135 25.1728 54.1284L21.5001 55.4182L33.8471 64.2452L33.6669 59.2199C33.9051 59.2008 34.1405 59.1718 34.3728 59.1335L34.5301 63.5152L37.8569 57.7113C38.5234 57.2441 39.1192 56.6838 39.6253 56.0494L34.8911 64.3112L51.4272 55.9101L49.1276 47.9021C49.3544 47.8267 49.5761 47.7391 49.792 47.6397L51.8831 54.9232L54.7151 46.8342L55.4021 47.0142L52.3381 55.7702L70.1331 57.0262L73.1762 54.3814C73.3324 54.5594 73.5 54.7271 73.6779 54.8834L70.6381 57.5262L84.9888 59.6562C85.1583 59.9351 85.3455 60.2018 85.549 60.4549L70.5191 58.2252L82.5061 77.3972L83.389 76.917L83.3431 77.3112L88.0264 73.9441C88.0653 74.2023 88.1175 74.4562 88.1823 74.7051L83.2361 78.2612L81.3171 95.2172L96.1731 86.6302L96.103 86.6081L98.295 79.7059C98.5996 79.5796 98.8941 79.4339 99.1768 79.2702L96.8511 86.5912L112.472 89.0772L104.408 63.0252L104.321 63.0712L102.213 69.7113C102.074 69.4136 101.917 69.1265 101.742 68.8516L103.346 63.8L99.4803 66.5801C99.2624 66.4397 99.0366 66.3103 98.8038 66.1926L103.152 63.0652L95.8721 61.9852L95.8287 61.8025L95.8856 61.7613L96.1332 61.5678C96.2209 61.4963 96.3069 61.4228 96.3911 61.3476L103.253 62.3642L98.8671 56.0152L98.8716 55.8103L98.8611 55.4131L98.8297 55.0194C98.8161 54.8916 98.7993 54.7644 98.7791 54.638L103.839 61.9642L106.037 52.0978C106.297 52.0501 106.552 51.9906 106.803 51.9199L104.543 62.0642L104.671 61.974L104.625 62.1132L128.677 49.5785L112.889 44.9869C112.922 44.7502 112.946 44.5104 112.959 44.2679L130.572 49.3908L105.237 62.5932L120.687 64.597L120.595 65.2999L105.239 63.3101L113.252 89.2012L114.126 89.3407L114.014 90.0407L96.5087 87.2557L81.0634 96.1831L80.8861 95.8762L80.5336 95.8364L82.5296 78.1924L66.5377 86.9091L66.1982 86.2868L81.8831 77.7362L69.9301 58.6182L66.8251 67.3621L65.1429 71.9867L64.3962 73.9691L63.996 74.9762L63.8727 75.2648L63.8067 75.4096L63.1659 75.1059L63.3512 74.6808L63.7474 73.682L64.5895 71.4392L65.89 67.866L68.8611 59.5269L69.2701 58.3662L52.2041 64.4342L52.2045 78.0069L39.4841 68.9572L23.7267 74.5607L23.6071 74.2262L23.2572 74.2799L20.4431 55.7212L4.20791 58.5035L4.1471 58.1532L3.87197 57.9317L16.8451 41.8482L2.0121 39.2199L2.1359 38.5219L17.3521 41.2192L17.5387 40.9886L14.1678 19.6429L14.8682 19.5324L18.1551 40.3472L24.0821 27.9272L14.2766 18.8163L14.7594 18.2971L24.4031 27.2562L34.1409 6.85402L34.1442 6.84352C34.2506 6.6325 34.5547 6.58018 34.7213 6.76475ZM51.4951 64.6862L40.2991 68.6672L51.4943 76.6329L51.4951 64.6862ZM21.2161 56.0882L23.8611 73.5332L33.6491 64.9772L21.2161 56.0882ZM34.3511 65.3052L25.2421 73.2682L38.7791 68.4552L34.3511 65.3052ZM51.4951 56.6692L35.1261 64.9862L39.5941 68.1652L51.4951 63.9342V56.6692ZM52.2041 56.4722V63.6812L69.1221 57.6662L52.2041 56.4722ZM17.6211 42.0142L5.0121 57.6452L20.3181 55.0232L17.6211 42.0142ZM43.8291 47.3633L43.9985 47.4592L44.3136 47.6181C44.3509 47.6357 44.3883 47.6528 44.4259 47.6697L40.9051 53.8162C41.189 53.0768 41.3714 52.2875 41.4354 51.4651L43.7571 47.4092L43.8291 47.3633ZM62.1234 1.53516L75.7611 16.4482L87.9127 5.91778C88.1171 5.74062 88.4241 5.85026 88.4877 6.09297L88.4995 6.17859L88.8091 21.9002L109.24 17.6045L109.24 36.7991C109.011 36.6446 108.774 36.501 108.53 36.369L108.53 18.4785L88.8231 22.6222L89.1661 40.0422L89.3932 40.5835L96.3361 41.438C96.2698 41.6653 96.213 41.8964 96.1658 42.1311L89.5751 41.3192L94.7931 48.8722L94.5687 49.0722L94.2668 48.9375L93.9262 48.8059C93.9087 48.7997 93.8911 48.7935 93.8736 48.7873L88.9251 41.6252L81.8381 47.7872L81.7974 47.7241C81.6768 47.5493 81.5464 47.3824 81.4073 47.2239L88.1002 41.4051L60.0598 33.7101L57.3551 41.4352L56.6681 41.2552L59.3971 33.4582L58.0671 32.7222L52.1773 37.8279C52.0311 37.6418 51.8747 37.4639 51.7092 37.295L57.4061 32.3562L49.8155 28.1553C49.9112 27.9377 49.9979 27.7156 50.0751 27.4896L57.9761 31.8632L75.2251 16.9132L62.1252 2.58987L47.719 18.4955C47.5429 18.3376 47.3601 18.1869 47.1711 18.0439L62.1234 1.53516ZM24.6271 28.4332L18.6121 41.0352L32.5233 35.7696L24.6271 28.4332ZM81.7341 24.1792L60.9201 33.2112L88.4711 40.7702L88.4591 40.1892L81.7341 24.1792ZM120.374 28.6329L120.908 29.0991L111.807 39.5211C111.682 39.3091 111.547 39.103 111.405 38.9034L120.374 28.6329ZM88.1161 22.7702L82.4157 23.9696L88.4221 38.2702L88.1161 22.7702ZM34.0151 8.76116L24.9471 27.7622L32.6781 34.9442L34.0151 8.76116ZM75.7041 17.4372L58.6371 32.2282L59.8546 32.9025L81.3266 23.5848L75.7041 17.4372ZM87.8052 6.94937L76.2401 16.9722L82.0471 23.3222L88.1021 22.0492L87.8052 6.94937Z" fill="white" fill-opacity="0.4"/>
<path d="M104.487 36.7855C108.381 36.7855 111.537 39.9236 111.537 43.7946C111.537 47.6657 108.381 50.8038 104.487 50.8038C103.064 50.8038 101.739 50.3846 100.631 49.6636L96.7731 53.0709C97.1971 53.8923 97.4364 54.8235 97.4364 55.8103C97.4364 58.1235 96.1213 60.1314 94.1939 61.1354L95.5466 66.8259C98.8266 66.8918 101.465 69.5558 101.465 72.8325C101.465 76.1505 98.7596 78.8403 95.422 78.8403C92.0844 78.8403 89.3788 76.1505 89.3788 72.8325C89.3788 70.5257 90.6866 68.5225 92.6053 67.5158L91.2502 61.8165C88.2119 61.7464 85.728 59.4469 85.3893 56.4996L79.1507 54.3584C78.5947 54.6463 77.9626 54.809 77.2923 54.809C75.0673 54.809 73.2635 53.0158 73.2635 50.8038C73.2635 50.6293 73.2748 50.4574 73.2965 50.2888L70.392 49.3766L70.9956 47.4555L74.0575 48.4159C74.7918 47.4344 75.9674 46.7985 77.2923 46.7985C78.9581 46.7985 80.3878 47.8036 81.0012 49.237L87.2933 51.3965C88.3706 50.407 89.8109 49.8025 91.3932 49.8025C92.6387 49.8025 93.7963 50.1771 94.7581 50.8192L98.5059 47.5077C97.8282 46.4311 97.4364 45.1583 97.4364 43.7946C97.4364 39.9236 100.593 36.7855 104.487 36.7855ZM42.0402 17.7607C45.9341 17.7607 49.0907 20.8988 49.0907 24.7698C49.0907 27.4178 47.6137 29.7228 45.434 30.915L47.1707 36.7863C49.8257 36.8349 51.9786 38.9261 52.1063 41.5457L57.9543 43.0756C58.6894 42.1032 59.8594 41.4743 61.1771 41.4743C63.4022 41.4743 65.2059 43.2675 65.2059 45.4795C65.2059 45.5733 65.2027 45.6663 65.1963 45.7585L65.23 45.6454L68.6053 46.7411L68.0017 48.6622L64.6265 47.5665L64.639 47.5294C63.9358 48.7005 62.6486 49.4847 61.1771 49.4847C59.1279 49.4847 57.436 47.9638 57.1814 45.9955L51.3348 44.4657C50.4423 45.8677 48.8686 46.7985 47.0763 46.7985C45.8519 46.7985 44.7296 46.3642 43.8568 45.642L39.589 48.3695C39.8715 49.1278 40.0258 49.9479 40.0258 50.8038C40.0258 54.6748 36.8693 57.8129 32.9754 57.8129C29.0816 57.8129 25.925 54.6748 25.925 50.8038C25.925 46.9327 29.0816 43.7946 32.9754 43.7946C34.9152 43.7946 36.672 44.5734 37.9468 45.8336L42.2153 43.1052C42.1011 42.6867 42.0402 42.2464 42.0402 41.792C42.0402 40.06 42.925 38.5334 44.2696 37.6344L42.5323 31.7621C42.3697 31.7733 42.2057 31.779 42.0402 31.779C38.1464 31.779 34.9898 28.6409 34.9898 24.7698C34.9898 20.8988 38.1464 17.7607 42.0402 17.7607ZM81.2679 51.4568C81.1889 51.9357 81.0245 52.3859 80.7907 52.7916L85.5146 54.4117C85.6264 53.9453 85.793 53.5001 86.0071 53.083L81.2679 51.4568Z" fill="url(#paint0_linear_10_150)"/>
<path d="M219.576 10H155.423C152.428 10 150 12.4282 150 15.4235V64.5765C150 67.5718 152.428 70 155.423 70H219.576C222.572 70 225 67.5718 225 64.5765V15.4235C225 12.4282 222.572 10 219.576 10Z" stroke="white"/>
<path d="M186.986 56.7089H191.625L177.709 20H170.916L157 56.7089H161.584L165.173 47.3246H183.397L186.986 56.7089ZM166.554 43.6262L174.285 23.3121L182.016 43.6262H166.554Z" fill="white"/>
<path d="M216.518 23.6985V20H196.416V23.6985H204.203V53.0104H196.416V56.7089H216.518V53.0104H208.731V23.6985H216.518Z" fill="white"/>
<path d="M258.639 18C253.29 18 251.507 19.8937 251.507 23.6253V29.1392H238.804V21.3975H247.83V18H241.757C236.408 18 234.68 19.8937 234.68 23.6253V28.9722L230 30.1418V32.6481H234.68V56.9873H239.138V32.6481H251.507V56.9873H255.965V32.6481H263.933V29.1392H255.686V21.3975H272.792V18H258.639ZM268.335 56.9873H272.792V29.1392H268.335V56.9873Z" fill="white"/>
<path d="M297.192 28.2481C291.676 28.2481 288.221 31.3671 286.494 36.4354V29.1392H282.036V56.9873H286.494V46.3494C286.494 36.7696 289.781 31.9797 295.966 31.9797C300.033 31.9797 302.652 33.762 302.652 39.7215V56.9873H307.11V39.2203C307.11 32.0354 304.157 28.2481 297.192 28.2481Z" fill="white"/>
<path d="M316.187 24.5722H321.926V19.9494H316.187V24.5722ZM316.8 56.9873H321.257V29.1392H316.8V56.9873Z" fill="white"/>
<path d="M340.085 56.9873H346.66V53.3671H337.801V32.6481H346.994V29.1392H337.801V22.957H335.405L333.733 28.7494L328.05 30.1418V32.6481H333.343V50.4709C333.343 54.9266 334.736 56.9873 340.085 56.9873Z" fill="white"/>
<path d="M376.13 29.1392L367.494 50.5823L366.658 53.2557L365.711 50.5823L357.186 29.1392H352.505L363.538 56.9873H365.098L362.033 64.5063H354.288V68.1266H359.582C364.596 68.1266 365.711 66.0658 367.438 61.6101L380.532 29.1392H376.13Z" fill="white"/>
<path d="M380.05 74.9498H378.319L378.303 74.9723L374.94 79.8971L371.656 74.9723L371.641 74.9498H369.91V75.0611L369.918 75.0738L374.197 81.2633V85.5621H375.7V81.2643L380.04 75.0738L380.05 75.0611V74.9498Z" fill="white"/>
<path d="M380.05 74.9498H378.319L378.303 74.9723L374.94 79.8971L371.656 74.9723L371.641 74.9498H369.91V75.0611L369.918 75.0738L374.197 81.2633V85.5621H375.7V81.2643L380.04 75.0738L380.05 75.0611V74.9498Z" stroke="#072F4E" stroke-width="0.1"/>
<path d="M380.05 74.9498H378.319L378.303 74.9723L374.94 79.8971L371.656 74.9723L371.641 74.9498H369.91V75.0611L369.918 75.0738L374.197 81.2633V85.5621H375.7V81.2643L380.04 75.0738L380.05 75.0611V74.9498Z" stroke="white" stroke-width="0.1"/>
<path d="M360.854 75.5078C361.726 75.5116 362.6 75.5156 363.477 75.5156C364.668 75.5156 365.531 75.8968 366.093 76.4385C366.657 76.9828 366.948 77.7182 366.948 78.4834C366.948 79.1511 366.764 79.7816 366.365 80.2725C365.971 80.7573 365.33 81.152 364.326 81.2891L363.357 81.4209L364.032 82.1289L366.876 85.1152H366.058L362.781 81.6094L362.634 81.4512H359.537V85.1152H358.736V75.501C359.443 75.502 360.148 75.5047 360.854 75.5078ZM359.537 80.9062H363.462C364.311 80.9062 364.986 80.6497 365.451 80.1895C365.913 79.7316 366.116 79.1224 366.116 78.5137C366.116 77.9253 365.912 77.3083 365.464 76.835C365.008 76.3542 364.337 76.0596 363.477 76.0596H359.537V80.9062Z" fill="white"/>
<path d="M360.854 75.5078C361.726 75.5116 362.6 75.5156 363.477 75.5156C364.668 75.5156 365.531 75.8968 366.093 76.4385C366.657 76.9828 366.948 77.7182 366.948 78.4834C366.948 79.1511 366.764 79.7816 366.365 80.2725C365.971 80.7573 365.33 81.152 364.326 81.2891L363.357 81.4209L364.032 82.1289L366.876 85.1152H366.058L362.781 81.6094L362.634 81.4512H359.537V85.1152H358.736V75.501C359.443 75.502 360.148 75.5047 360.854 75.5078ZM359.537 80.9062H363.462C364.311 80.9062 364.986 80.6497 365.451 80.1895C365.913 79.7316 366.116 79.1224 366.116 78.5137C366.116 77.9253 365.912 77.3083 365.464 76.835C365.008 76.3542 364.337 76.0596 363.477 76.0596H359.537V80.9062Z" stroke="#072F4E"/>
<path d="M360.854 75.5078C361.726 75.5116 362.6 75.5156 363.477 75.5156C364.668 75.5156 365.531 75.8968 366.093 76.4385C366.657 76.9828 366.948 77.7182 366.948 78.4834C366.948 79.1511 366.764 79.7816 366.365 80.2725C365.971 80.7573 365.33 81.152 364.326 81.2891L363.357 81.4209L364.032 82.1289L366.876 85.1152H366.058L362.781 81.6094L362.634 81.4512H359.537V85.1152H358.736V75.501C359.443 75.502 360.148 75.5047 360.854 75.5078ZM359.537 80.9062H363.462C364.311 80.9062 364.986 80.6497 365.451 80.1895C365.913 79.7316 366.116 79.1224 366.116 78.5137C366.116 77.9253 365.912 77.3083 365.464 76.835C365.008 76.3542 364.337 76.0596 363.477 76.0596H359.537V80.9062Z" stroke="white"/>
<path d="M355.676 75.5V76.1504H349.213V80.0127H355.419V80.5879H349.213V84.4346H355.723V85.1006H348.412V75.5H355.676Z" fill="white"/>
<path d="M355.676 75.5V76.1504H349.213V80.0127H355.419V80.5879H349.213V84.4346H355.723V85.1006H348.412V75.5H355.676Z" stroke="#072F4E"/>
<path d="M355.676 75.5V76.1504H349.213V80.0127H355.419V80.5879H349.213V84.4346H355.723V85.1006H348.412V75.5H355.676Z" stroke="white"/>
<path d="M341.131 85.5621L341.145 85.5328L345.944 75.0211L345.978 74.9498H344.278L344.265 74.9791L340.305 83.8316L336.395 74.9801L336.381 74.9498H334.665L334.697 75.0211L339.498 85.5328L339.511 85.5621H341.131Z" fill="white"/>
<path d="M341.131 85.5621L341.145 85.5328L345.944 75.0211L345.978 74.9498H344.278L344.265 74.9791L340.305 83.8316L336.395 74.9801L336.381 74.9498H334.665L334.697 75.0211L339.498 85.5328L339.511 85.5621H341.131Z" stroke="#072F4E" stroke-width="0.1"/>
<path d="M341.131 85.5621L341.145 85.5328L345.944 75.0211L345.978 74.9498H344.278L344.265 74.9791L340.305 83.8316L336.395 74.9801L336.381 74.9498H334.665L334.697 75.0211L339.498 85.5328L339.511 85.5621H341.131Z" stroke="white" stroke-width="0.1"/>
<path d="M327.006 75.5C328.804 75.5072 330.097 76.1299 330.943 77.043C331.796 77.9631 332.231 79.2178 332.231 80.542C332.231 81.8681 331.803 83.1097 330.954 84.0146C330.111 84.913 328.81 85.5244 326.975 85.5244C325.144 85.5244 323.843 84.9004 322.998 83.9951C322.146 83.0825 321.719 81.8434 321.719 80.5576C321.719 77.6258 323.873 75.5008 327.006 75.5ZM327.008 76.0449C325.591 76.0449 324.45 76.513 323.665 77.3467C322.885 78.1756 322.504 79.3151 322.504 80.5723V80.5811C322.521 81.6127 322.848 82.7068 323.581 83.5508C324.325 84.4074 325.452 84.9648 326.975 84.9648C328.492 84.9648 329.63 84.4552 330.383 83.6133C331.127 82.7811 331.446 81.678 331.446 80.5723C331.446 79.5004 331.12 78.3839 330.389 77.5205C329.648 76.6453 328.523 76.0698 327.015 76.0449H327.008Z" fill="white"/>
<path d="M327.006 75.5C328.804 75.5072 330.097 76.1299 330.943 77.043C331.796 77.9631 332.231 79.2178 332.231 80.542C332.231 81.8681 331.803 83.1097 330.954 84.0146C330.111 84.913 328.81 85.5244 326.975 85.5244C325.144 85.5244 323.843 84.9004 322.998 83.9951C322.146 83.0825 321.719 81.8434 321.719 80.5576C321.719 77.6258 323.873 75.5008 327.006 75.5ZM327.008 76.0449C325.591 76.0449 324.45 76.513 323.665 77.3467C322.885 78.1756 322.504 79.3151 322.504 80.5723V80.5811C322.521 81.6127 322.848 82.7068 323.581 83.5508C324.325 84.4074 325.452 84.9648 326.975 84.9648C328.492 84.9648 329.63 84.4552 330.383 83.6133C331.127 82.7811 331.446 81.678 331.446 80.5723C331.446 79.5004 331.12 78.3839 330.389 77.5205C329.648 76.6453 328.523 76.0698 327.015 76.0449H327.008Z" stroke="#072F4E"/>
<path d="M327.006 75.5C328.804 75.5072 330.097 76.1299 330.943 77.043C331.796 77.9631 332.231 79.2178 332.231 80.542C332.231 81.8681 331.803 83.1097 330.954 84.0146C330.111 84.913 328.81 85.5244 326.975 85.5244C325.144 85.5244 323.843 84.9004 322.998 83.9951C322.146 83.0825 321.719 81.8434 321.719 80.5576C321.719 77.6258 323.873 75.5008 327.006 75.5ZM327.008 76.0449C325.591 76.0449 324.45 76.513 323.665 77.3467C322.885 78.1756 322.504 79.3151 322.504 80.5723V80.5811C322.521 81.6127 322.848 82.7068 323.581 83.5508C324.325 84.4074 325.452 84.9648 326.975 84.9648C328.492 84.9648 329.63 84.4552 330.383 83.6133C331.127 82.7811 331.446 81.678 331.446 80.5723C331.446 79.5004 331.12 78.3839 330.389 77.5205C329.648 76.6453 328.523 76.0698 327.015 76.0449H327.008Z" stroke="white"/>
<path d="M314.979 75.5C316.192 75.5 317.365 75.8701 318.336 76.6152L317.874 77.0342C317.022 76.3988 315.987 76.1055 314.979 76.1055C313.424 76.1055 312.244 76.6486 311.458 77.5029C310.679 78.3491 310.322 79.4616 310.331 80.5469C310.34 81.6152 310.681 82.7085 311.453 83.54C312.233 84.3801 313.406 84.9043 314.979 84.9043C315.988 84.9043 317.092 84.5625 317.948 83.9209L318.454 84.3975C317.468 85.1389 316.262 85.4941 314.979 85.4941C313.051 85.4941 311.71 84.8721 310.848 83.9746C310.034 83.1274 309.609 81.994 309.553 80.7949L309.546 80.5547C309.539 79.275 309.978 78.0142 310.862 77.0771C311.74 76.1469 313.091 75.5 314.979 75.5Z" fill="white"/>
<path d="M314.979 75.5C316.192 75.5 317.365 75.8701 318.336 76.6152L317.874 77.0342C317.022 76.3988 315.987 76.1055 314.979 76.1055C313.424 76.1055 312.244 76.6486 311.458 77.5029C310.679 78.3491 310.322 79.4616 310.331 80.5469C310.34 81.6152 310.681 82.7085 311.453 83.54C312.233 84.3801 313.406 84.9043 314.979 84.9043C315.988 84.9043 317.092 84.5625 317.948 83.9209L318.454 84.3975C317.468 85.1389 316.262 85.4941 314.979 85.4941C313.051 85.4941 311.71 84.8721 310.848 83.9746C310.034 83.1274 309.609 81.994 309.553 80.7949L309.546 80.5547C309.539 79.275 309.978 78.0142 310.862 77.0771C311.74 76.1469 313.091 75.5 314.979 75.5Z" stroke="#072F4E"/>
<path d="M314.979 75.5C316.192 75.5 317.365 75.8701 318.336 76.6152L317.874 77.0342C317.022 76.3988 315.987 76.1055 314.979 76.1055C313.424 76.1055 312.244 76.6486 311.458 77.5029C310.679 78.3491 310.322 79.4616 310.331 80.5469C310.34 81.6152 310.681 82.7085 311.453 83.54C312.233 84.3801 313.406 84.9043 314.979 84.9043C315.988 84.9043 317.092 84.5625 317.948 83.9209L318.454 84.3975C317.468 85.1389 316.262 85.4941 314.979 85.4941C313.051 85.4941 311.71 84.8721 310.848 83.9746C310.034 83.1274 309.609 81.994 309.553 80.7949L309.546 80.5547C309.539 79.275 309.978 78.0142 310.862 77.0771C311.74 76.1469 313.091 75.5 314.979 75.5Z" stroke="white"/>
<path d="M298.498 78.04C298.491 77.1586 298.941 76.5475 299.655 76.1309C300.389 75.7024 301.383 75.5001 302.339 75.5C303.721 75.5 304.969 75.7744 305.798 76.6602L305.258 77.001C304.56 76.3343 303.481 75.9828 302.393 75.9688H302.387C301.576 75.9688 300.828 76.126 300.263 76.4609C299.683 76.8053 299.283 77.3541 299.283 78.0742C299.283 78.4429 299.398 78.7655 299.612 79.0312C299.818 79.2875 300.096 79.4675 300.388 79.5996C300.962 79.8589 301.714 79.9861 302.45 80.084H302.451C303.604 80.2348 304.646 80.4535 305.392 80.8857C305.757 81.0971 306.037 81.352 306.227 81.6621C306.392 81.9315 306.503 82.2644 306.528 82.6875L306.534 82.874C306.526 83.866 306.058 84.5311 305.32 84.9727C304.555 85.4302 303.493 85.6455 302.371 85.6455C301.338 85.6455 300.465 85.4957 299.741 85.1582C299.153 84.8839 298.647 84.4759 298.227 83.8906L298.752 83.5615C299.699 84.729 301.12 85.1309 302.387 85.1309C303.102 85.1308 303.9 85.0208 304.541 84.6992C305.205 84.3657 305.733 83.7774 305.733 82.874C305.733 82.0531 305.243 81.5235 304.612 81.2012C304.007 80.8921 303.213 80.7362 302.418 80.6367H302.419C301.301 80.4928 300.3 80.296 299.583 79.8955C299.233 79.7002 298.968 79.4653 298.789 79.1787C298.611 78.8946 298.498 78.5303 298.498 78.0439V78.04Z" fill="white"/>
<path d="M298.498 78.04C298.491 77.1586 298.941 76.5475 299.655 76.1309C300.389 75.7024 301.383 75.5001 302.339 75.5C303.721 75.5 304.969 75.7744 305.798 76.6602L305.258 77.001C304.56 76.3343 303.481 75.9828 302.393 75.9688H302.387C301.576 75.9688 300.828 76.126 300.263 76.4609C299.683 76.8053 299.283 77.3541 299.283 78.0742C299.283 78.4429 299.398 78.7655 299.612 79.0312C299.818 79.2875 300.096 79.4675 300.388 79.5996C300.962 79.8589 301.714 79.9861 302.45 80.084H302.451C303.604 80.2348 304.646 80.4535 305.392 80.8857C305.757 81.0971 306.037 81.352 306.227 81.6621C306.392 81.9315 306.503 82.2644 306.528 82.6875L306.534 82.874C306.526 83.866 306.058 84.5311 305.32 84.9727C304.555 85.4302 303.493 85.6455 302.371 85.6455C301.338 85.6455 300.465 85.4957 299.741 85.1582C299.153 84.8839 298.647 84.4759 298.227 83.8906L298.752 83.5615C299.699 84.729 301.12 85.1309 302.387 85.1309C303.102 85.1308 303.9 85.0208 304.541 84.6992C305.205 84.3657 305.733 83.7774 305.733 82.874C305.733 82.0531 305.243 81.5235 304.612 81.2012C304.007 80.8921 303.213 80.7362 302.418 80.6367H302.419C301.301 80.4928 300.3 80.296 299.583 79.8955C299.233 79.7002 298.968 79.4653 298.789 79.1787C298.611 78.8946 298.498 78.5303 298.498 78.0439V78.04Z" stroke="#072F4E"/>
<path d="M298.498 78.04C298.491 77.1586 298.941 76.5475 299.655 76.1309C300.389 75.7024 301.383 75.5001 302.339 75.5C303.721 75.5 304.969 75.7744 305.798 76.6602L305.258 77.001C304.56 76.3343 303.481 75.9828 302.393 75.9688H302.387C301.576 75.9688 300.828 76.126 300.263 76.4609C299.683 76.8053 299.283 77.3541 299.283 78.0742C299.283 78.4429 299.398 78.7655 299.612 79.0312C299.818 79.2875 300.096 79.4675 300.388 79.5996C300.962 79.8589 301.714 79.9861 302.45 80.084H302.451C303.604 80.2348 304.646 80.4535 305.392 80.8857C305.757 81.0971 306.037 81.352 306.227 81.6621C306.392 81.9315 306.503 82.2644 306.528 82.6875L306.534 82.874C306.526 83.866 306.058 84.5311 305.32 84.9727C304.555 85.4302 303.493 85.6455 302.371 85.6455C301.338 85.6455 300.465 85.4957 299.741 85.1582C299.153 84.8839 298.647 84.4759 298.227 83.8906L298.752 83.5615C299.699 84.729 301.12 85.1309 302.387 85.1309C303.102 85.1308 303.9 85.0208 304.541 84.6992C305.205 84.3657 305.733 83.7774 305.733 82.874C305.733 82.0531 305.243 81.5235 304.612 81.2012C304.007 80.8921 303.213 80.7362 302.418 80.6367H302.419C301.301 80.4928 300.3 80.296 299.583 79.8955C299.233 79.7002 298.968 79.4653 298.789 79.1787C298.611 78.8946 298.498 78.5303 298.498 78.0439V78.04Z" stroke="white"/>
<path d="M295.019 75.5V85.1006H294.235V75.5H295.019Z" fill="white"/>
<path d="M295.019 75.5V85.1006H294.235V75.5H295.019Z" stroke="#072F4E"/>
<path d="M295.019 75.5V85.1006H294.235V75.5H295.019Z" stroke="white"/>
<path d="M286.078 75.5C287.879 75.5001 289.14 76.1029 289.959 76.9658C290.784 77.8365 291.198 79.0136 291.22 80.2188V80.2217C291.25 81.4515 290.858 82.6679 290.031 83.5723C289.211 84.4686 287.925 85.1005 286.078 85.1006H282.317V75.5H286.078ZM283.101 84.4648H286.078C287.576 84.4648 288.697 83.94 289.43 83.1094C290.155 82.2886 290.463 81.2156 290.436 80.1816V80.1807L290.411 79.8076C290.319 78.9376 289.983 78.0736 289.348 77.3955C288.615 76.612 287.524 76.1202 286.078 76.1201H283.101V84.4648Z" fill="white"/>
<path d="M286.078 75.5C287.879 75.5001 289.14 76.1029 289.959 76.9658C290.784 77.8365 291.198 79.0136 291.22 80.2188V80.2217C291.25 81.4515 290.858 82.6679 290.031 83.5723C289.211 84.4686 287.925 85.1005 286.078 85.1006H282.317V75.5H286.078ZM283.101 84.4648H286.078C287.576 84.4648 288.697 83.94 289.43 83.1094C290.155 82.2886 290.463 81.2156 290.436 80.1816V80.1807L290.411 79.8076C290.319 78.9376 289.983 78.0736 289.348 77.3955C288.615 76.612 287.524 76.1202 286.078 76.1201H283.101V84.4648Z" stroke="#072F4E"/>
<path d="M286.078 75.5C287.879 75.5001 289.14 76.1029 289.959 76.9658C290.784 77.8365 291.198 79.0136 291.22 80.2188V80.2217C291.25 81.4515 290.858 82.6679 290.031 83.5723C289.211 84.4686 287.925 85.1005 286.078 85.1006H282.317V75.5H286.078ZM283.101 84.4648H286.078C287.576 84.4648 288.697 83.94 289.43 83.1094C290.155 82.2886 290.463 81.2156 290.436 80.1816V80.1807L290.411 79.8076C290.319 78.9376 289.983 78.0736 289.348 77.3955C288.615 76.612 287.524 76.1202 286.078 76.1201H283.101V84.4648Z" stroke="white"/>
<path d="M269.606 75.5C270.815 75.5 272.031 75.876 273.025 76.6309L272.617 77.0254C271.741 76.3853 270.61 76.0596 269.606 76.0596C268.164 76.0597 266.988 76.5727 266.175 77.4268C265.417 78.2237 265.003 79.289 264.961 80.4365L264.958 80.6641C264.958 81.7345 265.297 82.8198 266.072 83.6416C266.853 84.4703 268.031 84.9794 269.606 84.9795C270.665 84.9795 271.664 84.7243 272.665 83.9326L272.856 83.7832V80.8906H269.72V80.376H273.528V84.0146C272.518 85.0012 271.283 85.5693 269.606 85.5693C267.649 85.5692 266.309 84.9597 265.458 84.0762C264.602 83.1874 264.19 81.9692 264.19 80.6641C264.19 79.247 264.669 77.9608 265.567 77.0322C266.46 76.1079 267.803 75.5001 269.606 75.5Z" fill="white"/>
<path d="M269.606 75.5C270.815 75.5 272.031 75.876 273.025 76.6309L272.617 77.0254C271.741 76.3853 270.61 76.0596 269.606 76.0596C268.164 76.0597 266.988 76.5727 266.175 77.4268C265.417 78.2237 265.003 79.289 264.961 80.4365L264.958 80.6641C264.958 81.7345 265.297 82.8198 266.072 83.6416C266.853 84.4703 268.031 84.9794 269.606 84.9795C270.665 84.9795 271.664 84.7243 272.665 83.9326L272.856 83.7832V80.8906H269.72V80.376H273.528V84.0146C272.518 85.0012 271.283 85.5693 269.606 85.5693C267.649 85.5692 266.309 84.9597 265.458 84.0762C264.602 83.1874 264.19 81.9692 264.19 80.6641C264.19 79.247 264.669 77.9608 265.567 77.0322C266.46 76.1079 267.803 75.5001 269.606 75.5Z" stroke="#072F4E"/>
<path d="M269.606 75.5C270.815 75.5 272.031 75.876 273.025 76.6309L272.617 77.0254C271.741 76.3853 270.61 76.0596 269.606 76.0596C268.164 76.0597 266.988 76.5727 266.175 77.4268C265.417 78.2237 265.003 79.289 264.961 80.4365L264.958 80.6641C264.958 81.7345 265.297 82.8198 266.072 83.6416C266.853 84.4703 268.031 84.9794 269.606 84.9795C270.665 84.9795 271.664 84.7243 272.665 83.9326L272.856 83.7832V80.8906H269.72V80.376H273.528V84.0146C272.518 85.0012 271.283 85.5693 269.606 85.5693C267.649 85.5692 266.309 84.9597 265.458 84.0762C264.602 83.1874 264.19 81.9692 264.19 80.6641C264.19 79.247 264.669 77.9608 265.567 77.0322C266.46 76.1079 267.803 75.5001 269.606 75.5Z" stroke="white"/>
<path d="M252.405 75.5V81.1934C252.405 82.2611 252.739 83.139 253.356 83.7588C253.968 84.3742 254.81 84.6855 255.742 84.7207V84.7217C256.75 84.7726 257.671 84.489 258.343 83.8633C259.017 83.2351 259.387 82.3124 259.387 81.1934V75.5H260.171V81.1934C260.171 82.6286 259.672 83.6526 258.91 84.3135C258.14 84.9818 257.046 85.3244 255.784 85.2822H255.779C254.618 85.2542 253.58 84.8907 252.838 84.2236C252.105 83.5647 251.621 82.5725 251.621 81.1934V75.5H252.405Z" fill="white"/>
<path d="M252.405 75.5V81.1934C252.405 82.2611 252.739 83.139 253.356 83.7588C253.968 84.3742 254.81 84.6855 255.742 84.7207V84.7217C256.75 84.7726 257.671 84.489 258.343 83.8633C259.017 83.2351 259.387 82.3124 259.387 81.1934V75.5H260.171V81.1934C260.171 82.6286 259.672 83.6526 258.91 84.3135C258.14 84.9818 257.046 85.3244 255.784 85.2822H255.779C254.618 85.2542 253.58 84.8907 252.838 84.2236C252.105 83.5647 251.621 82.5725 251.621 81.1934V75.5H252.405Z" stroke="#072F4E"/>
<path d="M252.405 75.5V81.1934C252.405 82.2611 252.739 83.139 253.356 83.7588C253.968 84.3742 254.81 84.6855 255.742 84.7207V84.7217C256.75 84.7726 257.671 84.489 258.343 83.8633C259.017 83.2351 259.387 82.3124 259.387 81.1934V75.5H260.171V81.1934C260.171 82.6286 259.672 83.6526 258.91 84.3135C258.14 84.9818 257.046 85.3244 255.784 85.2822H255.779C254.618 85.2542 253.58 84.8907 252.838 84.2236C252.105 83.5647 251.621 82.5725 251.621 81.1934V75.5H252.405Z" stroke="white"/>
<path d="M241.01 75.5078C241.882 75.5116 242.756 75.5156 243.633 75.5156C244.824 75.5156 245.687 75.8968 246.248 76.4385C246.813 76.9828 247.104 77.7182 247.104 78.4834C247.104 79.1511 246.92 79.7816 246.521 80.2725C246.127 80.7573 245.486 81.152 244.482 81.2891L243.513 81.4209L244.188 82.1289L247.031 85.1152H246.213L242.937 81.6094L242.789 81.4512H239.693V85.1152H238.892V75.501C239.599 75.502 240.304 75.5047 241.01 75.5078ZM239.693 80.9062H243.617C244.466 80.9062 245.142 80.6497 245.607 80.1895C246.069 79.7316 246.272 79.1224 246.272 78.5137C246.272 77.9253 246.068 77.3083 245.619 76.835C245.164 76.3542 244.492 76.0596 243.633 76.0596H239.693V80.9062Z" fill="white"/>
<path d="M241.01 75.5078C241.882 75.5116 242.756 75.5156 243.633 75.5156C244.824 75.5156 245.687 75.8968 246.248 76.4385C246.813 76.9828 247.104 77.7182 247.104 78.4834C247.104 79.1511 246.92 79.7816 246.521 80.2725C246.127 80.7573 245.486 81.152 244.482 81.2891L243.513 81.4209L244.188 82.1289L247.031 85.1152H246.213L242.937 81.6094L242.789 81.4512H239.693V85.1152H238.892V75.501C239.599 75.502 240.304 75.5047 241.01 75.5078ZM239.693 80.9062H243.617C244.466 80.9062 245.142 80.6497 245.607 80.1895C246.069 79.7316 246.272 79.1224 246.272 78.5137C246.272 77.9253 246.068 77.3083 245.619 76.835C245.164 76.3542 244.492 76.0596 243.633 76.0596H239.693V80.9062Z" stroke="#072F4E"/>
<path d="M241.01 75.5078C241.882 75.5116 242.756 75.5156 243.633 75.5156C244.824 75.5156 245.687 75.8968 246.248 76.4385C246.813 76.9828 247.104 77.7182 247.104 78.4834C247.104 79.1511 246.92 79.7816 246.521 80.2725C246.127 80.7573 245.486 81.152 244.482 81.2891L243.513 81.4209L244.188 82.1289L247.031 85.1152H246.213L242.937 81.6094L242.789 81.4512H239.693V85.1152H238.892V75.501C239.599 75.502 240.304 75.5047 241.01 75.5078ZM239.693 80.9062H243.617C244.466 80.9062 245.142 80.6497 245.607 80.1895C246.069 79.7316 246.272 79.1224 246.272 78.5137C246.272 77.9253 246.068 77.3083 245.619 76.835C245.164 76.3542 244.492 76.0596 243.633 76.0596H239.693V80.9062Z" stroke="white"/>
<path d="M229.729 75.5C231.53 75.5001 232.791 76.1029 233.609 76.9658C234.435 77.8365 234.849 79.0136 234.871 80.2188V80.2217C234.901 81.4515 234.509 82.6679 233.682 83.5723C232.862 84.4686 231.576 85.1005 229.729 85.1006H225.968V75.5H229.729ZM226.752 84.4648H229.729C231.227 84.4648 232.347 83.94 233.081 83.1094C233.806 82.2886 234.114 81.2156 234.087 80.1816V80.1807L234.062 79.8076C233.969 78.9376 233.634 78.0736 232.999 77.3955C232.266 76.612 231.175 76.1202 229.729 76.1201H226.752V84.4648Z" fill="white"/>
<path d="M229.729 75.5C231.53 75.5001 232.791 76.1029 233.609 76.9658C234.435 77.8365 234.849 79.0136 234.871 80.2188V80.2217C234.901 81.4515 234.509 82.6679 233.682 83.5723C232.862 84.4686 231.576 85.1005 229.729 85.1006H225.968V75.5H229.729ZM226.752 84.4648H229.729C231.227 84.4648 232.347 83.94 233.081 83.1094C233.806 82.2886 234.114 81.2156 234.087 80.1816V80.1807L234.062 79.8076C233.969 78.9376 233.634 78.0736 232.999 77.3955C232.266 76.612 231.175 76.1202 229.729 76.1201H226.752V84.4648Z" stroke="#072F4E"/>
<path d="M229.729 75.5C231.53 75.5001 232.791 76.1029 233.609 76.9658C234.435 77.8365 234.849 79.0136 234.871 80.2188V80.2217C234.901 81.4515 234.509 82.6679 233.682 83.5723C232.862 84.4686 231.576 85.1005 229.729 85.1006H225.968V75.5H229.729ZM226.752 84.4648H229.729C231.227 84.4648 232.347 83.94 233.081 83.1094C233.806 82.2886 234.114 81.2156 234.087 80.1816V80.1807L234.062 79.8076C233.969 78.9376 233.634 78.0736 232.999 77.3955C232.266 76.612 231.175 76.1202 229.729 76.1201H226.752V84.4648Z" stroke="white"/>
<path d="M211.642 75.5V85.1006H210.857V75.5H211.642Z" fill="white"/>
<path d="M211.642 75.5V85.1006H210.857V75.5H211.642Z" stroke="#072F4E"/>
<path d="M211.642 75.5V85.1006H210.857V75.5H211.642Z" stroke="white"/>
<path d="M202.981 75.5L207.553 85.1006H206.745L205.805 83.1562L205.668 82.874H198.946L198.809 83.1592L197.885 85.1006H197.079L201.651 75.5H202.981ZM201.864 76.5732L199.484 81.6162L199.147 82.3301H205.484L205.147 81.6162L202.768 76.5732L202.316 75.6152L201.864 76.5732Z" fill="white"/>
<path d="M202.981 75.5L207.553 85.1006H206.745L205.805 83.1562L205.668 82.874H198.946L198.809 83.1592L197.885 85.1006H197.079L201.651 75.5H202.981ZM201.864 76.5732L199.484 81.6162L199.147 82.3301H205.484L205.147 81.6162L202.768 76.5732L202.316 75.6152L201.864 76.5732Z" stroke="#072F4E"/>
<path d="M202.981 75.5L207.553 85.1006H206.745L205.805 83.1562L205.668 82.874H198.946L198.809 83.1592L197.885 85.1006H197.079L201.651 75.5H202.981ZM201.864 76.5732L199.484 81.6162L199.147 82.3301H205.484L205.147 81.6162L202.768 76.5732L202.316 75.6152L201.864 76.5732Z" stroke="white"/>
<path d="M193.367 81.1228V80.7566H187.731V81.1228H193.367Z" fill="white"/>
<path d="M193.367 81.1228V80.7566H187.731V81.1228H193.367Z" stroke="#072F4E"/>
<path d="M193.367 81.1228V80.7566H187.731V81.1228H193.367Z" stroke="white"/>
<path d="M177.801 75.5078C178.673 75.5116 179.546 75.5156 180.424 75.5156C181.615 75.5156 182.477 75.8968 183.039 76.4385C183.603 76.9828 183.894 77.7182 183.894 78.4834C183.894 79.1511 183.711 79.7816 183.311 80.2725C182.917 80.7573 182.276 81.152 181.272 81.2891L180.304 81.4209L180.978 82.1289L183.822 85.1152H183.004L179.727 81.6094L179.58 81.4512H176.483V85.1152H175.683V75.501C176.39 75.502 177.095 75.5047 177.801 75.5078ZM176.483 80.9062H180.408C181.257 80.9062 181.933 80.6497 182.397 80.1895C182.86 79.7316 183.062 79.1224 183.062 78.5137C183.062 77.9253 182.859 77.3083 182.41 76.835C181.955 76.3542 181.283 76.0596 180.424 76.0596H176.483V80.9062Z" fill="white"/>
<path d="M177.801 75.5078C178.673 75.5116 179.546 75.5156 180.424 75.5156C181.615 75.5156 182.477 75.8968 183.039 76.4385C183.603 76.9828 183.894 77.7182 183.894 78.4834C183.894 79.1511 183.711 79.7816 183.311 80.2725C182.917 80.7573 182.276 81.152 181.272 81.2891L180.304 81.4209L180.978 82.1289L183.822 85.1152H183.004L179.727 81.6094L179.58 81.4512H176.483V85.1152H175.683V75.501C176.39 75.502 177.095 75.5047 177.801 75.5078ZM176.483 80.9062H180.408C181.257 80.9062 181.933 80.6497 182.397 80.1895C182.86 79.7316 183.062 79.1224 183.062 78.5137C183.062 77.9253 182.859 77.3083 182.41 76.835C181.955 76.3542 181.283 76.0596 180.424 76.0596H176.483V80.9062Z" stroke="#072F4E"/>
<path d="M177.801 75.5078C178.673 75.5116 179.546 75.5156 180.424 75.5156C181.615 75.5156 182.477 75.8968 183.039 76.4385C183.603 76.9828 183.894 77.7182 183.894 78.4834C183.894 79.1511 183.711 79.7816 183.311 80.2725C182.917 80.7573 182.276 81.152 181.272 81.2891L180.304 81.4209L180.978 82.1289L183.822 85.1152H183.004L179.727 81.6094L179.58 81.4512H176.483V85.1152H175.683V75.501C176.39 75.502 177.095 75.5047 177.801 75.5078ZM176.483 80.9062H180.408C181.257 80.9062 181.933 80.6497 182.397 80.1895C182.86 79.7316 183.062 79.1224 183.062 78.5137C183.062 77.9253 182.859 77.3083 182.41 76.835C181.955 76.3542 181.283 76.0596 180.424 76.0596H176.483V80.9062Z" stroke="white"/>
<path d="M163.417 75.5L166.982 80.2666L167.383 80.8027L167.783 80.2656L171.331 75.5H172.67V85.1006H171.869V75.9893L170.972 77.165L167.352 81.9072L163.779 77.167L162.879 75.9746V85.1006H162.078V75.5H163.417Z" fill="white"/>
<path d="M163.417 75.5L166.982 80.2666L167.383 80.8027L167.783 80.2656L171.331 75.5H172.67V85.1006H171.869V75.9893L170.972 77.165L167.352 81.9072L163.779 77.167L162.879 75.9746V85.1006H162.078V75.5H163.417Z" stroke="#072F4E"/>
<path d="M163.417 75.5L166.982 80.2666L167.383 80.8027L167.783 80.2656L171.331 75.5H172.67V85.1006H171.869V75.9893L170.972 77.165L167.352 81.9072L163.779 77.167L162.879 75.9746V85.1006H162.078V75.5H163.417Z" stroke="white"/>
<path d="M151.15 75.5L157.384 82.8643L158.266 83.9062V75.5H159.066V85.1006H158.431L152.197 77.7949L151.316 76.7627V85.1006H150.5V75.5H151.15Z" fill="white"/>
<path d="M151.15 75.5L157.384 82.8643L158.266 83.9062V75.5H159.066V85.1006H158.431L152.197 77.7949L151.316 76.7627V85.1006H150.5V75.5H151.15Z" stroke="#072F4E"/>
<path d="M151.15 75.5L157.384 82.8643L158.266 83.9062V75.5H159.066V85.1006H158.431L152.197 77.7949L151.316 76.7627V85.1006H150.5V75.5H151.15Z" stroke="white"/>
</g>
<defs>
<linearGradient id="paint0_linear_10_150" x1="7671.63" y1="4349.4" x2="1484.74" y2="100.953" gradientUnits="userSpaceOnUse">
<stop stop-color="#1FA3C5"/>
<stop offset="1" stop-color="#28CC8E"/>
</linearGradient>
<clipPath id="clip0_10_150">
<rect width="380" height="100" fill="white"/>
</clipPath>
</defs>
</svg>
